#!OML:ASF H:\MichaelJackson\Top Level 1\Subject 1\Session 1\male.ASF
:FULLY-SPECIFIED
:DEGREES
717
root -9.66606 16.709 -28.4828 -174.039 -10.618 -172.837
lowerback -0.784198 -0.297832 4.941
upperback 3.07355 -0.584101 -0.66911
thorax 3.56272 -0.169362 -3.4873
lowerneck -0.0773489 -5.56576 -5.28268
upperneck -4.83339 -7.55238 15.0261
head -0.597121 -4.14672 5.37155
rclavicle 7.95139e-015 9.54166e-015
rhumerus -38.3167 2.20525 -89.8872
rradius 75.9428
rwrist 2.88931
rhand -34.9678 -31.5349
rfingers 7.12502
rthumb -8.11373 -61.3591
lclavicle 7.95139e-015 9.54166e-015
lhumerus -46.7964 -5.8164 88.0151
lradius 38.7033
lwrist 5.50522
lhand -14.79 13.1519
lfingers 7.12502
lthumb 11.3673 42.8238
rfemur -14.7719 -5.42972 27.0596
rtibia 40.4981
rfoot -23.0227 -9.57445
rtoes -22.3097
lfemur -33.4147 6.36162 -13.8573
ltibia 47.0844
lfoot -16.1485 -12.678
ltoes 33.0103
718
root -9.62365 16.704 -28.4296 -173.852 -10.3122 -172.787
lowerback -0.902916 -0.0586434 4.90935
upperback 3.0816 -0.272595 -0.60542
thorax 3.66876 -0.0131403 -3.39251
lowerneck -0.169181 -5.56816 -5.23525
upperneck -5.15393 -7.52647 14.9766
head -0.681481 -4.14466 5.35392
rclavicle 1.37161e-014 3.26007e-014
rhumerus -38.0602 2.49193 -90.1008
rradius 75.7237
rwrist 1.96123
rhand -33.322 -30.7147
rfingers 7.12502
rthumb -6.52512 -60.5942
lclavicle 1.37161e-014 3.26007e-014
lhumerus -46.8915 -3.99616 87.488
lradius 38.291
lwrist 4.56492
lhand -13.6369 12.9273
lfingers 7.12502
lthumb 12.4792 42.5347
rfemur -14.6517 -4.92979 27.3422
rtibia 39.5645
rfoot -23.6188 -10.0673
rtoes -22.6692
lfemur -33.9222 6.44012 -13.6525
ltibia 47.3792
lfoot -16.1004 -12.4975
ltoes 32.4069
719
root -9.58258 16.6943 -28.3764 -173.644 -10.0182 -172.736
lowerback -1.04792 0.106243 4.84767
upperback 3.0908 -0.0600434 -0.552361
thorax 3.78039 0.0932291 -3.29458
lowerneck -0.28006 -5.5001 -5.04854
upperneck -5.46969 -7.41031 14.8591
head -0.779165 -4.10018 5.29401
rclavicle -7.95139e-015 -1.90833e-014
rhumerus -37.6117 3.07578 -90.4007
rradius 75.2459
rwrist 0.953548
rhand -32.0191 -31.3387
rfingers 7.12502
rthumb -5.26717 -61.2532
lclavicle -7.95139e-015 -1.90833e-014
lhumerus -47.2753 -1.61489 86.6259
lradius 38.6047
lwrist 3.35001
lhand -12.2856 12.9855
lfingers 7.12502
lthumb 13.7818 42.5091
rfemur -14.6066 -4.38293 27.6463
rtibia 38.749
rfoot -23.9811 -10.7844
rtoes -21.5816
lfemur -34.4834 6.5705 -13.4574
ltibia 47.6771
lfoot -15.9429 -12.4135
ltoes 31.8532
720
root -9.54228 16.6929 -28.3188 -173.359 -9.85529 -172.678
lowerback -1.20941 0.243849 4.85549
upperback 3.05656 0.116248 -0.494788
thorax 3.85253 0.182551 -3.2315
lowerneck -0.475992 -5.44638 -4.89224
upperneck -5.63661 -7.32443 14.7238
head -0.815676 -4.05959 5.22639
rclavicle 3.18055e-015 1.35174e-014
rhumerus -37.2541 3.61528 -90.6393
rradius 74.8153
rwrist 0.0200866
rhand -31.0486 -31.8598
rfingers 7.12502
rthumb -4.33011 -61.7955
lclavicle 3.18055e-015 1.35174e-014
lhumerus -47.6 -0.495551 86.4122
lradius 38.4823
lwrist 3.41882
lhand -11.4704 12.8704
lfingers 7.12502
lthumb 14.5673 42.3389
rfemur -14.7606 -4.41067 27.9564
rtibia 38.0255
rfoot -24.2922 -11.1269
rtoes -20.1172
lfemur -35.2027 6.64221 -13.2772
ltibia 48.0212
lfoot -15.7541 -12.4092
ltoes 31.5403
721
root -9.50366 16.6914 -28.2552 -173.087 -9.62075 -172.421
lowerback -1.27202 0.386104 5.08094
upperback 2.99403 0.295451 -0.398136
thorax 3.84159 0.27616 -3.24953
lowerneck -0.661777 -5.39967 -4.82221
upperneck -5.7932 -7.25365 14.7144
head -0.840358 -4.02969 5.21101
rclavicle 5.76476e-015 -7.95139e-015
rhumerus -36.8501 4.21539 -90.9283
rradius 74.2506
rwrist -0.585536
rhand -30.4486 -33.4349
rfingers 7.12502
rthumb -3.75066 -63.3816
lclavicle 5.76476e-015 -7.95139e-015
lhumerus -48.0045 0.551385 86.2472
lradius 38.5236
lwrist 3.8168
lhand -10.9902 12.9257
lfingers 7.12502
lthumb 15.0299 42.3602
rfemur -15.0297 -4.96083 28.4577
rtibia 37.3884
rfoot -24.6072 -10.8164
rtoes -18.565
lfemur -36.0125 6.76265 -12.8847
ltibia 48.4409
lfoot -15.4973 -12.3342
ltoes 31.2012
722
root -9.46619 16.6843 -28.1853 -172.768 -9.52873 -172.216
lowerback -1.28109 0.465256 5.3071
upperback 2.90456 0.395415 -0.318495
thorax 3.76543 0.328515 -3.28937
lowerneck -0.88792 -5.3248 -4.6557
upperneck -5.91364 -7.14654 14.5778
head -0.860599 -3.97688 5.13971
rclavicle 8.15017e-015 -2.62396e-014
rhumerus -36.4309 4.88857 -91.2317
rradius 73.5532
rwrist -0.902342
rhand -29.7557 -32.6375
rfingers 7.12502
rthumb -3.08156 -62.5949
lclavicle 8.15017e-015 -2.62396e-014
lhumerus -48.4325 1.31836 86.2388
lradius 38.614
lwrist 4.57894
lhand -10.8817 12.8537
lfingers 7.12502
lthumb 15.1345 42.2804
rfemur -15.4032 -5.24378 28.9095
rtibia 36.8512
rfoot -24.6898 -11.0208
rtoes -18.2847
lfemur -36.9595 6.76472 -12.572
ltibia 48.9136
lfoot -15.155 -12.2124
ltoes 30.872
